<svg xmlns="http://www.w3.org/2000/svg" xmlns:xlink="http://www.w3.org/1999/xlink" fill="none" version="1.1" width="512" height="399" viewBox="0 0 512 399"><defs><clipPath id="master_svg0_540_3326"><rect x="0" y="0" width="512" height="399" rx="0"/></clipPath></defs><g clip-path="url(#master_svg0_540_3326)"><g transform="matrix(0.9438563585281372,0.3303561508655548,-1.1102199806005023e-16,1,0.4897252725464849,-2.88160425256919)"><g transform="matrix(0.9974265694618225,-0.07271569967269897,0,1,0.022447314400153573,0.6342786984785675)"><path d="M8.7227201461792,260.8977203063965L534.0997201461792,260.8977203063965L534.0997201461792,244.0367203063965L525.8907201461792,244.0367203063965L525.8907201461792,227.1747203063965L534.0997201461792,227.1747203063965L534.0997201461792,126.00342030639649L525.8907201461792,126.00342030639649L525.8907201461792,109.14152030639649L534.0997201461792,109.14152030639649L534.0997201461792,92.27972030639648L8.7227201461792,92.27972030639648L8.7227201461792,109.14152030639649L16.9317301461792,109.14152030639649L16.9317301461792,126.00342030639649L8.7227201461792,126.00342030639649L8.7227201461792,227.1747203063965L16.9317301461792,227.1747203063965L16.9317301461792,244.0367203063965L8.7227201461792,244.0367203063965L8.7227201461792,260.8977203063965ZM33.349720146179195,227.1747203063965L33.349720146179195,244.0367203063965L49.7677201461792,244.0367203063965L49.7677201461792,227.1747203063965L33.349720146179195,227.1747203063965ZM82.6038201461792,227.1747203063965L66.1858201461792,227.1747203063965L66.1858201461792,244.0367203063965L82.6038201461792,244.0367203063965L82.6038201461792,227.1747203063965ZM115.4397201461792,227.1747203063965L99.0218201461792,227.1747203063965L99.0218201461792,244.0367203063965L115.4397201461792,244.0367203063965L115.4397201461792,227.1747203063965ZM181.1117201461792,227.1747203063965L164.6937201461792,227.1747203063965L164.6937201461792,244.0367203063965L181.1117201461792,244.0367203063965L181.1117201461792,227.1747203063965ZM213.9477201461792,227.1747203063965L197.5297201461792,227.1747203063965L197.5297201461792,244.0367203063965L213.9477201461792,244.0367203063965L213.9477201461792,227.1747203063965ZM246.7837201461792,227.1747203063965L230.3657201461792,227.1747203063965L230.3657201461792,244.0367203063965L246.7837201461792,244.0367203063965L246.7837201461792,227.1747203063965ZM312.4557201461792,227.1747203063965L296.0377201461792,227.1747203063965L296.0377201461792,244.0367203063965L312.4557201461792,244.0367203063965L312.4557201461792,227.1747203063965ZM345.2917201461792,227.1747203063965L328.8737201461792,227.1747203063965L328.8737201461792,244.0367203063965L345.2917201461792,244.0367203063965L345.2917201461792,227.1747203063965ZM378.1277201461792,227.1747203063965L361.7097201461792,227.1747203063965L361.7097201461792,244.0367203063965L378.1277201461792,244.0367203063965L378.1277201461792,227.1747203063965ZM410.9637201461792,227.1747203063965L394.5457201461792,227.1747203063965L394.5457201461792,244.0367203063965L410.9637201461792,244.0367203063965L410.9637201461792,227.1747203063965ZM443.7997201461792,227.1747203063965L427.3817201461792,227.1747203063965L427.3817201461792,244.0367203063965L443.7997201461792,244.0367203063965L443.7997201461792,227.1747203063965ZM476.6357201461792,227.1747203063965L460.2177201461792,227.1747203063965L460.2177201461792,244.0367203063965L476.6357201461792,244.0367203063965L476.6357201461792,227.1747203063965ZM509.4727201461792,227.1747203063965L493.0547201461792,227.1747203063965L493.0547201461792,244.0367203063965L509.4727201461792,244.0367203063965L509.4727201461792,227.1747203063965ZM279.6197201461792,227.1747203063965L263.20172014617924,227.1747203063965L263.20172014617924,244.0367203063965L279.6197201461792,244.0367203063965L279.6197201461792,227.1747203063965ZM148.2757201461792,227.1747203063965L131.8577201461792,227.1747203063965L131.8577201461792,244.0367203063965L148.2757201461792,244.0367203063965L148.2757201461792,227.1747203063965ZM33.349720146179195,109.14152030639649L33.349720146179195,126.00342030639649L49.7677201461792,126.00342030639649L49.7677201461792,109.14152030639649L33.349720146179195,109.14152030639649ZM82.6038201461792,109.14152030639649L66.1858201461792,109.14152030639649L66.1858201461792,126.00342030639649L82.6038201461792,126.00342030639649L82.6038201461792,109.14152030639649ZM115.4397201461792,109.14152030639649L99.0218201461792,109.14152030639649L99.0218201461792,126.00342030639649L115.4397201461792,126.00342030639649L115.4397201461792,109.14152030639649ZM181.1117201461792,109.14152030639649L164.6937201461792,109.14152030639649L164.6937201461792,126.00342030639649L181.1117201461792,126.00342030639649L181.1117201461792,109.14152030639649ZM213.9477201461792,109.14152030639649L197.5297201461792,109.14152030639649L197.5297201461792,126.00342030639649L213.9477201461792,126.00342030639649L213.9477201461792,109.14152030639649ZM246.7837201461792,109.14152030639649L230.3657201461792,109.14152030639649L230.3657201461792,126.00342030639649L246.7837201461792,126.00342030639649L246.7837201461792,109.14152030639649ZM312.4557201461792,109.14152030639649L296.0377201461792,109.14152030639649L296.0377201461792,126.00342030639649L312.4557201461792,126.00342030639649L312.4557201461792,109.14152030639649ZM345.2917201461792,109.14152030639649L328.8737201461792,109.14152030639649L328.8737201461792,126.00342030639649L345.2917201461792,126.00342030639649L345.2917201461792,109.14152030639649ZM378.1277201461792,109.14152030639649L361.7097201461792,109.14152030639649L361.7097201461792,126.00342030639649L378.1277201461792,126.00342030639649L378.1277201461792,109.14152030639649ZM410.9637201461792,109.14152030639649L394.5457201461792,109.14152030639649L394.5457201461792,126.00342030639649L410.9637201461792,126.00342030639649L410.9637201461792,109.14152030639649ZM443.7997201461792,109.14152030639649L427.3817201461792,109.14152030639649L427.3817201461792,126.00342030639649L443.7997201461792,126.00342030639649L443.7997201461792,109.14152030639649ZM476.6357201461792,109.14152030639649L460.2177201461792,109.14152030639649L460.2177201461792,126.00342030639649L476.6357201461792,126.00342030639649L476.6357201461792,109.14152030639649ZM509.4727201461792,109.14152030639649L493.0547201461792,109.14152030639649L493.0547201461792,126.00342030639649L509.4727201461792,126.00342030639649L509.4727201461792,109.14152030639649ZM279.6197201461792,109.14152030639649L263.20172014617924,109.14152030639649L263.20172014617924,126.00342030639649L279.6197201461792,126.00342030639649L279.6197201461792,109.14152030639649ZM148.2757201461792,109.14152030639649L131.8577201461792,109.14152030639649L131.8577201461792,126.00342030639649L148.2757201461792,126.00342030639649L148.2757201461792,109.14152030639649Z" fill-rule="evenodd" fill="#FF8729" fill-opacity="1"/></g></g><g><g><path d="M71,227.12900000000002L78.709,225.01L78.709,241.897L71,244L71,345.25800000000004L78.709,343.139L78.709,360.026L71,362.129L71,379L441,277.75800000000004L441,260.871L433.291,262.99L433.291,246.103L441,244L441,142.7419L433.291,144.86090000000002L433.291,127.99L441,125.8709L441,109L71,210.24200000000002L71,227.12900000000002ZM109.545,334.712L94.127,338.93399999999997L94.127,355.805L109.545,351.58299999999997L109.545,334.712ZM140.381,326.26800000000003L124.963,330.49L124.963,347.361L140.381,343.139L140.381,326.26800000000003ZM171.201,317.825L155.78300000000002,322.046L155.78300000000002,338.93399999999997L171.201,334.712L171.201,317.825ZM202.037,309.397L186.619,313.619L186.619,330.49L202.037,326.26800000000003L202.037,309.397ZM232.873,300.954L217.455,305.175L217.455,322.046L232.873,317.825L232.873,300.954ZM263.709,292.51L248.291,296.73199999999997L248.291,313.619L263.709,309.397L263.709,292.51ZM294.54499999999996,284.08299999999997L279.127,288.305L279.127,305.175L294.54499999999996,300.954L294.54499999999996,284.08299999999997ZM325.381,275.639L309.96299999999997,279.861L309.96299999999997,296.73199999999997L325.381,292.526L325.381,275.639ZM356.217,267.212L340.799,271.41700000000003L340.799,288.305L356.217,284.08299999999997L356.217,267.212ZM387.037,258.76800000000003L371.619,262.99L371.619,279.861L387.037,275.639L387.037,258.76800000000003ZM417.873,250.325L402.455,254.546L402.455,271.41700000000003L417.873,267.212L417.873,250.325ZM109.545,216.583L94.127,220.805L94.127,237.675L109.545,233.454L109.545,216.583ZM140.381,208.13909999999998L124.963,212.361L124.963,229.232L140.381,225.01L140.381,208.13909999999998ZM171.201,199.69549999999998L155.78300000000002,203.9173L155.78300000000002,220.805L171.201,216.583L171.201,199.69549999999998ZM202.037,191.26819999999998L186.619,195.49L186.619,212.361L202.037,208.13909999999998L202.037,191.26819999999998ZM232.873,182.8246L217.455,187.0464L217.455,203.9173L232.873,199.69549999999998L232.873,182.8246ZM263.709,174.3972L248.291,178.6028L248.291,195.49L263.709,191.26819999999998L263.709,174.3972ZM294.54499999999996,165.9536L279.127,170.1754L279.127,187.0464L294.54499999999996,182.8246L294.54499999999996,165.9536ZM325.381,157.51L309.96299999999997,161.7318L309.96299999999997,178.6028L325.381,174.3972L325.381,157.51ZM356.217,149.0827L340.799,153.28820000000002L340.799,170.1754L356.217,165.9536L356.217,149.0827ZM387.037,140.63909999999998L371.619,144.86090000000002L371.619,161.7318L387.037,157.51L387.037,140.63909999999998ZM417.873,132.1955L402.455,136.4173L402.455,153.28820000000002L417.873,149.0827L417.873,132.1955Z" fill-rule="evenodd" fill="#FAFAFD" fill-opacity="1"/></g></g></g></svg>